<svg width="339" height="340" viewBox="0 0 339 340" fill="none" xmlns="http://www.w3.org/2000/svg">
<g filter="url(#filter0_d_48_7943)">
<g clip-path="url(#clip0_48_7943)">
<rect x="26.7939" y="15.7021" width="285.298" height="285.298" rx="74.2963" fill="url(#paint0_linear_48_7943)"/>
<g filter="url(#filter1_f_48_7943)">
<ellipse cx="203.009" cy="365.426" rx="169.109" ry="121.64" transform="rotate(-33.5279 203.009 365.426)" fill="#2C8DFF" fill-opacity="0.48"/>
</g>
<g filter="url(#filter2_f_48_7943)">
<ellipse cx="27.3267" cy="54.8693" rx="169.109" ry="121.64" transform="rotate(-45 27.3267 54.8693)" fill="#5D4BC9" fill-opacity="0.53"/>
</g>
<g clip-path="url(#clip1_48_7943)">
<rect x="26.7939" y="15.2173" width="285.298" height="285.298" rx="74.2963" fill="#EEEFFC"/>
<g filter="url(#filter3_f_48_7943)">
<ellipse cx="270.495" cy="365.273" rx="169.109" ry="121.64" transform="rotate(-33.5279 270.495 365.273)" fill="#2C8DFF" fill-opacity="0.06"/>
</g>
<g filter="url(#filter4_f_48_7943)">
<ellipse cx="27.3267" cy="54.3844" rx="169.109" ry="121.64" transform="rotate(-45 27.3267 54.3844)" fill="#5D4BC9" fill-opacity="0.02"/>
</g>
<g filter="url(#filter5_d_48_7943)">
<path fill-rule="evenodd" clip-rule="evenodd" d="M99.499 122.117C99.499 97.8135 118.741 78.1113 142.477 78.1113H196.198C219.934 78.1113 239.176 97.8135 239.176 122.117V177.408C239.176 197.155 223.542 213.163 204.257 213.163H196.426L218.79 224.401C221.902 225.965 222.99 229.869 221.135 232.817C213.074 245.626 196.628 250.258 183.067 243.54L120.871 212.729C107.811 206.329 99.499 192.821 99.499 177.996V122.117ZM173 201.684L171.363 190.349C170.586 184.974 174.755 180.159 180.187 180.159H193.512C200.93 180.159 206.943 174.002 206.943 166.407V130.368C206.943 119.735 198.525 111.116 188.14 111.116H150.535C140.15 111.116 131.732 119.735 131.732 130.368V169.332C131.732 176.744 135.888 183.498 142.418 186.698L173 201.684Z" fill="#5260DD"/>
</g>
<mask id="mask0_48_7943" style="mask-type:alpha" maskUnits="userSpaceOnUse" x="99" y="78" width="141" height="182">
<path fill-rule="evenodd" clip-rule="evenodd" d="M99.499 122.117C99.499 97.8135 118.741 78.1113 142.477 78.1113H196.198C219.934 78.1113 239.176 97.8135 239.176 122.117V177.408C239.176 197.155 223.542 213.163 204.257 213.163H196.426L232.461 230.757L216.102 259.394L120.871 212.729C107.811 206.329 99.499 192.821 99.499 177.996V122.117ZM173 201.684L169.474 180.159H193.512C200.93 180.159 206.943 174.002 206.943 166.407V130.368C206.943 119.735 198.525 111.116 188.14 111.116H150.535C140.15 111.116 131.732 119.735 131.732 130.368V169.332C131.732 176.744 135.888 183.498 142.418 186.698L173 201.684Z" fill="url(#paint1_linear_48_7943)"/>
</mask>
<g mask="url(#mask0_48_7943)">
<g opacity="0.19" filter="url(#filter6_f_48_7943)">
<rect width="71.3148" height="116.614" rx="35.6574" transform="matrix(0.303039 0.952978 -0.948667 0.316278 162.039 30.2314)" fill="#EEEFFC"/>
</g>
<g opacity="0.78" filter="url(#filter7_f_48_7943)">
<rect width="53.3664" height="92.4849" rx="26.6832" transform="matrix(0.910609 0.41327 -0.397253 0.917709 241.241 135.271)" fill="#2D357A"/>
</g>
<path fill-rule="evenodd" clip-rule="evenodd" d="M172.981 201.472C173.013 201.403 173.093 201.374 173.16 201.406L196.565 212.878C196.632 212.911 196.661 212.993 196.629 213.061C196.597 213.13 196.517 213.159 196.45 213.127L173.045 201.655C172.978 201.622 172.949 201.54 172.981 201.472Z" fill="url(#paint2_linear_48_7943)"/>
</g>
<mask id="mask1_48_7943" style="mask-type:alpha" maskUnits="userSpaceOnUse" x="169" y="180" width="36" height="34">
<path d="M169.867 180.249L172.968 201.523L196.818 213.253H204.164V180.249H169.867Z" fill="#EEEFFC"/>
</mask>
<g mask="url(#mask1_48_7943)">
<g opacity="0.67" filter="url(#filter8_f_48_7943)">
<path d="M159.92 194.974L161.896 190.354L194.578 210.707L186.301 214.446L159.92 194.974Z" fill="#3A449D"/>
</g>
</g>
</g>
<path d="M143.299 275.603L145.299 275.612V275.603C145.299 268.291 144.741 261.276 142.387 254.676C140.016 248.03 135.865 241.911 128.849 236.32C121.567 230.517 112.187 229.461 104.365 229.18C102.599 229.117 100.959 229.093 99.4247 229.071C97.4207 229.042 95.5948 229.015 93.8952 228.906C92.4435 228.814 91.2347 228.665 90.265 228.43C89.2818 228.192 88.6899 227.898 88.3506 227.613C87.4954 226.894 87.2109 226.138 87.1876 225.192C87.1608 224.103 87.4854 222.803 87.9996 221.12C88.075 220.874 88.1546 220.618 88.2363 220.356C88.676 218.945 89.1793 217.331 89.4473 215.711C89.7728 213.743 89.7925 211.576 88.9202 209.4C87.9071 206.872 85.6783 205.498 83.0975 204.916C80.5555 204.343 77.4494 204.469 74.0974 205.067C67.3656 206.269 59.0373 209.485 50.8666 213.97C35.3138 222.508 17.5192 239.141 16.2646 269.723C16.1025 273.673 16.2275 277.6 16.4045 281.471C16.7106 288.167 17.5506 299.735 19.8614 311.062C21.0169 316.725 22.55 322.38 24.5927 327.357C26.6263 332.312 29.2211 336.736 32.5749 339.802C39.3614 346.008 48.2959 349.787 58.0886 349.787H103.439C113.231 349.787 122.166 346.008 128.953 339.802C133.196 335.922 136.245 329.848 138.479 323.193C140.729 316.491 142.229 308.962 143.234 301.942C144.239 294.912 144.755 288.337 145.019 283.523C145.152 281.115 145.222 279.143 145.258 277.771C145.277 277.085 145.287 276.548 145.292 276.182C145.294 276.077 145.295 275.987 145.296 275.91C145.297 275.853 145.297 275.803 145.298 275.762L145.299 275.652L145.299 275.623L145.299 275.615L145.299 275.613C145.299 275.613 145.299 275.612 143.299 275.603Z" fill="#EEEFFC" stroke="#4B57C9" stroke-width="4"/>
<mask id="mask2_48_7943" style="mask-type:alpha" maskUnits="userSpaceOnUse" x="18" y="206" width="126" height="142">
<path d="M143.299 275.603C143.299 261.143 141.075 248.621 127.603 237.884C114.131 227.147 92.4302 233.654 87.0639 229.144C81.6975 224.634 89.825 217.032 87.0639 210.144C84.3027 203.256 67.9295 206.885 51.829 215.723C36.6866 224.036 19.4804 240.128 18.2629 269.805C18.1046 273.665 18.226 277.521 18.4024 281.38C19.0106 294.681 21.7366 327.182 33.9245 338.327C40.3632 344.214 48.8229 347.787 58.0886 347.787H103.439C112.704 347.787 121.164 344.214 127.603 338.326C143.077 324.176 143.299 275.603 143.299 275.603Z" fill="white"/>
</mask>
<g mask="url(#mask2_48_7943)">
<path d="M143.361 277.292C143.361 263.39 139.459 247.309 126.492 236.987C113.526 226.664 87.6541 237.892 82.4892 233.556C77.3243 229.22 85.1467 221.911 82.4892 215.289C79.8317 208.667 64.0731 212.156 48.577 220.653C34.003 228.645 17.4427 244.116 16.2709 272.648C16.1185 276.359 16.2353 280.067 16.4052 283.777C16.9905 296.565 19.6142 327.812 31.3446 338.527C37.5416 344.188 45.6838 347.623 54.6017 347.623H98.2493C107.167 347.623 120.295 347.841 126.492 342.181C141.386 328.576 143.361 277.292 143.361 277.292Z" fill="#C9CEF4"/>
<path d="M63.0011 248.292C76.9275 248.292 95.8962 234.683 117.026 240.374C103.854 253.782 62.7039 280.18 46.3638 279.04C30.0238 277.901 25.0636 266.69 25.0639 255.62C25.0642 244.55 32.9871 240.869 40.6709 242.601C48.3547 244.333 49.0748 248.292 63.0011 248.292Z" fill="#5260DD"/>
<g filter="url(#filter9_i_48_7943)">
<path d="M140.797 274.901C140.797 260.969 138.633 256.131 133.343 249.898C128.054 243.666 116.273 238.067 104.251 239.546C92.2297 241.025 83.5742 247.926 77.323 251.379C71.0719 254.832 50.9984 264.09 36.8706 260.497C22.7427 256.903 30.1437 242.724 27.5539 246.94C23.4667 253.595 21.5783 268.415 22.1217 280.468C22.6995 293.284 25.2898 324.599 36.8706 335.338C42.9885 341.011 51.0268 344.454 59.831 344.454H102.922C111.726 344.454 119.764 341.011 125.882 335.338C140.586 321.704 140.797 274.901 140.797 274.901Z" fill="#707EFF"/>
</g>
</g>
<ellipse cx="79.0531" cy="277.385" rx="5.0873" ry="5.24244" fill="#3A449D"/>
<ellipse cx="106.187" cy="276.986" rx="5.0873" ry="5.24244" fill="#3A449D"/>
<g filter="url(#filter10_i_48_7943)">
<path d="M167.519 307.784C157.746 304.502 153.479 307.526 150.247 298.349C147.014 289.173 155.111 278.076 168.85 276.365C182.589 274.653 194.946 279.236 198.179 288.412C203.46 303.403 187.832 314.605 167.519 307.784Z" fill="#707EFF"/>
</g>
<path d="M168.156 305.888C165.578 305.022 163.37 304.575 161.499 304.246C161.07 304.17 160.67 304.102 160.293 304.038C158.968 303.813 157.935 303.638 157.001 303.36C155.893 303.03 155.089 302.596 154.383 301.854C153.644 301.077 152.89 299.834 152.133 297.685C150.792 293.879 151.745 289.525 154.74 285.814C157.729 282.111 162.704 279.146 169.097 278.349C175.696 277.527 181.871 278.231 186.713 280.163C191.558 282.096 194.921 285.184 196.292 289.077C198.623 295.693 196.377 301.285 191.345 304.609C186.197 308.009 177.887 309.155 168.156 305.888Z" stroke="#4B57C9" stroke-width="4"/>
</g>
</g>
<defs>
<filter id="filter0_d_48_7943" x="0.0472889" y="0.842895" width="338.791" height="338.791" filterUnits="userSpaceOnUse" color-interpolation-filters="sRGB">
<feFlood flood-opacity="0" result="BackgroundImageFix"/>
<feColorMatrix in="SourceAlpha" type="matrix" values="0 0 0 0 0 0 0 0 0 0 0 0 0 0 0 0 0 0 127 0" result="hardAlpha"/>
<feOffset dy="11.8874"/>
<feGaussianBlur stdDeviation="13.3733"/>
<feComposite in2="hardAlpha" operator="out"/>
<feColorMatrix type="matrix" values="0 0 0 0 0.267072 0 0 0 0 0.128333 0 0 0 0 0.641667 0 0 0 0.21 0"/>
<feBlend mode="darken" in2="BackgroundImageFix" result="effect1_dropShadow_48_7943"/>
<feBlend mode="normal" in="SourceGraphic" in2="effect1_dropShadow_48_7943" result="shape"/>
</filter>
<filter id="filter1_f_48_7943" x="-9.65657" y="171.094" width="425.331" height="388.662" filterUnits="userSpaceOnUse" color-interpolation-filters="sRGB">
<feFlood flood-opacity="0" result="BackgroundImageFix"/>
<feBlend mode="normal" in="SourceGraphic" in2="BackgroundImageFix" result="shape"/>
<feGaussianBlur stdDeviation="28.2326" result="effect1_foregroundBlur_48_7943"/>
</filter>
<filter id="filter2_f_48_7943" x="-176.449" y="-148.906" width="407.55" height="407.551" filterUnits="userSpaceOnUse" color-interpolation-filters="sRGB">
<feFlood flood-opacity="0" result="BackgroundImageFix"/>
<feBlend mode="normal" in="SourceGraphic" in2="BackgroundImageFix" result="shape"/>
<feGaussianBlur stdDeviation="28.2326" result="effect1_foregroundBlur_48_7943"/>
</filter>
<filter id="filter3_f_48_7943" x="13.252" y="126.364" width="514.486" height="477.818" filterUnits="userSpaceOnUse" color-interpolation-filters="sRGB">
<feFlood flood-opacity="0" result="BackgroundImageFix"/>
<feBlend mode="normal" in="SourceGraphic" in2="BackgroundImageFix" result="shape"/>
<feGaussianBlur stdDeviation="50.5215" result="effect1_foregroundBlur_48_7943"/>
</filter>
<filter id="filter4_f_48_7943" x="-176.449" y="-149.391" width="407.55" height="407.551" filterUnits="userSpaceOnUse" color-interpolation-filters="sRGB">
<feFlood flood-opacity="0" result="BackgroundImageFix"/>
<feBlend mode="normal" in="SourceGraphic" in2="BackgroundImageFix" result="shape"/>
<feGaussianBlur stdDeviation="28.2326" result="effect1_foregroundBlur_48_7943"/>
</filter>
<filter id="filter5_d_48_7943" x="96.5272" y="78.1113" width="145.62" height="174.442" filterUnits="userSpaceOnUse" color-interpolation-filters="sRGB">
<feFlood flood-opacity="0" result="BackgroundImageFix"/>
<feColorMatrix in="SourceAlpha" type="matrix" values="0 0 0 0 0 0 0 0 0 0 0 0 0 0 0 0 0 0 127 0" result="hardAlpha"/>
<feOffset dy="2.97185"/>
<feGaussianBlur stdDeviation="1.48593"/>
<feComposite in2="hardAlpha" operator="out"/>
<feColorMatrix type="matrix" values="0 0 0 0 0.133333 0 0 0 0 0.156863 0 0 0 0 0.364706 0 0 0 0.21 0"/>
<feBlend mode="normal" in2="BackgroundImageFix" result="effect1_dropShadow_48_7943"/>
<feBlend mode="normal" in="SourceGraphic" in2="effect1_dropShadow_48_7943" result="shape"/>
</filter>
<filter id="filter6_f_48_7943" x="15.9457" y="-4.901" width="203.17" height="175.109" filterUnits="userSpaceOnUse" color-interpolation-filters="sRGB">
<feFlood flood-opacity="0" result="BackgroundImageFix"/>
<feBlend mode="normal" in="SourceGraphic" in2="BackgroundImageFix" result="shape"/>
<feGaussianBlur stdDeviation="22.2889" result="effect1_foregroundBlur_48_7943"/>
</filter>
<filter id="filter7_f_48_7943" x="192.883" y="123.923" width="108.572" height="129.625" filterUnits="userSpaceOnUse" color-interpolation-filters="sRGB">
<feFlood flood-opacity="0" result="BackgroundImageFix"/>
<feBlend mode="normal" in="SourceGraphic" in2="BackgroundImageFix" result="shape"/>
<feGaussianBlur stdDeviation="10" result="effect1_foregroundBlur_48_7943"/>
</filter>
<filter id="filter8_f_48_7943" x="151.004" y="181.438" width="52.4893" height="41.9234" filterUnits="userSpaceOnUse" color-interpolation-filters="sRGB">
<feFlood flood-opacity="0" result="BackgroundImageFix"/>
<feBlend mode="normal" in="SourceGraphic" in2="BackgroundImageFix" result="shape"/>
<feGaussianBlur stdDeviation="4.45778" result="effect1_foregroundBlur_48_7943"/>
</filter>
<filter id="filter9_i_48_7943" x="13.1147" y="233.362" width="127.682" height="111.091" filterUnits="userSpaceOnUse" color-interpolation-filters="sRGB">
<feFlood flood-opacity="0" result="BackgroundImageFix"/>
<feBlend mode="normal" in="SourceGraphic" in2="BackgroundImageFix" result="shape"/>
<feColorMatrix in="SourceAlpha" type="matrix" values="0 0 0 0 0 0 0 0 0 0 0 0 0 0 0 0 0 0 127 0" result="hardAlpha"/>
<feOffset dx="-12" dy="-5.9437"/>
<feGaussianBlur stdDeviation="4.45778"/>
<feComposite in2="hardAlpha" operator="arithmetic" k2="-1" k3="1"/>
<feColorMatrix type="matrix" values="0 0 0 0 0.321569 0 0 0 0 0.376471 0 0 0 0 0.866667 0 0 0 0.6 0"/>
<feBlend mode="normal" in2="shape" result="effect1_innerShadow_48_7943"/>
</filter>
<filter id="filter10_i_48_7943" x="146.537" y="274.011" width="52.6777" height="35.8179" filterUnits="userSpaceOnUse" color-interpolation-filters="sRGB">
<feFlood flood-opacity="0" result="BackgroundImageFix"/>
<feBlend mode="normal" in="SourceGraphic" in2="BackgroundImageFix" result="shape"/>
<feColorMatrix in="SourceAlpha" type="matrix" values="0 0 0 0 0 0 0 0 0 0 0 0 0 0 0 0 0 0 127 0" result="hardAlpha"/>
<feOffset dx="-10" dy="-2"/>
<feGaussianBlur stdDeviation="1.5"/>
<feComposite in2="hardAlpha" operator="arithmetic" k2="-1" k3="1"/>
<feColorMatrix type="matrix" values="0 0 0 0 0.321569 0 0 0 0 0.376471 0 0 0 0 0.866667 0 0 0 0.6 0"/>
<feBlend mode="normal" in2="shape" result="effect1_innerShadow_48_7943"/>
</filter>
<linearGradient id="paint0_linear_48_7943" x1="130.337" y1="141.518" x2="303.176" y2="308.429" gradientUnits="userSpaceOnUse">
<stop stop-color="#5260DD"/>
<stop offset="1" stop-color="#739EF1"/>
</linearGradient>
<linearGradient id="paint1_linear_48_7943" x1="169.338" y1="78.1113" x2="225.942" y2="243.168" gradientUnits="userSpaceOnUse">
<stop stop-color="#EEEFFC"/>
<stop offset="1" stop-color="#EEEFFC" stop-opacity="0"/>
</linearGradient>
<linearGradient id="paint2_linear_48_7943" x1="183.506" y1="207.596" x2="184.083" y2="206.544" gradientUnits="userSpaceOnUse">
<stop stop-color="#B5C2CE"/>
<stop offset="1" stop-color="#D6D8F5" stop-opacity="0.33"/>
</linearGradient>
<clipPath id="clip0_48_7943">
<rect x="26.7939" y="15.7021" width="285.298" height="285.298" rx="74.2963" fill="white"/>
</clipPath>
<clipPath id="clip1_48_7943">
<rect x="26.7939" y="15.2173" width="285.298" height="285.298" rx="74.2963" fill="white"/>
</clipPath>
</defs>
</svg>
